<svg
  id="visual"
  viewBox="0 0 900 600"
  xmlns="http://www.w3.org/2000/svg"
  xmlns:xlink="http://www.w3.org/1999/xlink"
  version="1.1"
>
    <rect x="0" y="0" width="100%" height="100%" fill="#004838"></rect>
    <defs>
      <linearGradient id="grad1_0" x1="33.3%" y1="100%" x2="100%" y2="0%">
        <stop offset="20%" stop-color="#96c135" stop-opacity="1"></stop>
        <stop offset="80%" stop-color="#96c135" stop-opacity="1"></stop>
      </linearGradient>
    </defs>
    <defs>
      <linearGradient id="grad1_1" x1="33.3%" y1="100%" x2="100%" y2="0%">
        <stop offset="20%" stop-color="#96c135" stop-opacity="1"></stop>
        <stop offset="80%" stop-color="#6baa3f" stop-opacity="1"></stop>
      </linearGradient>
    </defs>
    <defs>
      <linearGradient id="grad1_2" x1="33.3%" y1="100%" x2="100%" y2="0%">
        <stop offset="20%" stop-color="#469244" stop-opacity="1"></stop>
        <stop offset="80%" stop-color="#6baa3f" stop-opacity="1"></stop>
      </linearGradient>
    </defs>
    <defs>
      <linearGradient id="grad1_3" x1="33.3%" y1="100%" x2="100%" y2="0%">
        <stop offset="20%" stop-color="#469244" stop-opacity="1"></stop>
        <stop offset="80%" stop-color="#267945" stop-opacity="1"></stop>
      </linearGradient>
    </defs>
    <defs>
      <linearGradient id="grad1_4" x1="33.3%" y1="100%" x2="100%" y2="0%">
        <stop offset="20%" stop-color="#0a6041" stop-opacity="1"></stop>
        <stop offset="80%" stop-color="#267945" stop-opacity="1"></stop>
      </linearGradient>
    </defs>
    <defs>
      <linearGradient id="grad1_5" x1="33.3%" y1="100%" x2="100%" y2="0%">
        <stop offset="20%" stop-color="#0a6041" stop-opacity="1"></stop>
        <stop offset="80%" stop-color="#004838" stop-opacity="1"></stop>
      </linearGradient>
    </defs>
    <defs>
      <linearGradient id="grad2_0" x1="0%" y1="100%" x2="66.7%" y2="0%">
        <stop offset="20%" stop-color="#96c135" stop-opacity="1"></stop>
        <stop offset="80%" stop-color="#96c135" stop-opacity="1"></stop>
      </linearGradient>
    </defs>
    <defs>
      <linearGradient id="grad2_1" x1="0%" y1="100%" x2="66.7%" y2="0%">
        <stop offset="20%" stop-color="#6baa3f" stop-opacity="1"></stop>
        <stop offset="80%" stop-color="#96c135" stop-opacity="1"></stop>
      </linearGradient>
    </defs>
    <defs>
      <linearGradient id="grad2_2" x1="0%" y1="100%" x2="66.7%" y2="0%">
        <stop offset="20%" stop-color="#6baa3f" stop-opacity="1"></stop>
        <stop offset="80%" stop-color="#469244" stop-opacity="1"></stop>
      </linearGradient>
    </defs>
    <defs>
      <linearGradient id="grad2_3" x1="0%" y1="100%" x2="66.7%" y2="0%">
        <stop offset="20%" stop-color="#267945" stop-opacity="1"></stop>
        <stop offset="80%" stop-color="#469244" stop-opacity="1"></stop>
      </linearGradient>
    </defs>
    <defs>
      <linearGradient id="grad2_4" x1="0%" y1="100%" x2="66.7%" y2="0%">
        <stop offset="20%" stop-color="#267945" stop-opacity="1"></stop>
        <stop offset="80%" stop-color="#0a6041" stop-opacity="1"></stop>
      </linearGradient>
    </defs>
    <defs>
      <linearGradient id="grad2_5" x1="0%" y1="100%" x2="66.7%" y2="0%">
        <stop offset="20%" stop-color="#004838" stop-opacity="1"></stop>
        <stop offset="80%" stop-color="#0a6041" stop-opacity="1"></stop>
      </linearGradient>
    </defs>
    <g transform="translate(900, 600)">
      <path
        d="M-405.6 0C-389.4 -37.8 -373.2 -75.5 -364.3 -118.4C-355.3 -161.2 -353.8 -209.1 -328.2 -238.4C-302.6 -267.8 -253 -278.6 -214.5 -295.3C-176.1 -312 -148.9 -334.4 -115 -353.8C-81.1 -373.2 -40.5 -389.4 0 -405.6L0 0Z"
        fill="#02543d"
      ></path>
      <path
        d="M-338 0C-324.5 -31.5 -311 -62.9 -303.5 -98.6C-296.1 -134.3 -294.8 -174.2 -273.5 -198.7C-252.1 -223.2 -210.8 -232.2 -178.8 -246.1C-146.8 -260 -124 -278.7 -95.8 -294.8C-67.5 -311 -33.8 -324.5 0 -338L0 0Z"
        fill="#186d43"
      ></path>
      <path
        d="M-270.4 0C-259.6 -25.2 -248.8 -50.4 -242.8 -78.9C-236.9 -107.5 -235.8 -139.4 -218.8 -158.9C-201.7 -178.5 -168.6 -185.8 -143 -196.9C-117.4 -208 -99.2 -223 -76.6 -235.9C-54 -248.8 -27 -259.6 0 -270.4L0 0Z"
        fill="#368645"
      ></path>
      <path
        d="M-202.8 0C-194.7 -18.9 -186.6 -37.8 -182.1 -59.2C-177.7 -80.6 -176.9 -104.5 -164.1 -119.2C-151.3 -133.9 -126.5 -139.3 -107.3 -147.6C-88.1 -156 -74.4 -167.2 -57.5 -176.9C-40.5 -186.6 -20.3 -194.7 0 -202.8L0 0Z"
        fill="#589e42"
      ></path>
      <path
        d="M-135.2 0C-129.8 -12.6 -124.4 -25.2 -121.4 -39.5C-118.4 -53.7 -117.9 -69.7 -109.4 -79.5C-100.9 -89.3 -84.3 -92.9 -71.5 -98.4C-58.7 -104 -49.6 -111.5 -38.3 -117.9C-27 -124.4 -13.5 -129.8 0 -135.2L0 0Z"
        fill="#80b63a"
      ></path>
      <path
        d="M-67.6 0C-64.9 -6.3 -62.2 -12.6 -60.7 -19.7C-59.2 -26.9 -59 -34.8 -54.7 -39.7C-50.4 -44.6 -42.2 -46.4 -35.8 -49.2C-29.4 -52 -24.8 -55.7 -19.2 -59C-13.5 -62.2 -6.8 -64.9 0 -67.6L0 0Z"
        fill="#96c135"
      ></path>
    </g>
    <g transform="translate(0, 0)">
      <path
        d="M405.6 0C405.1 46.2 404.5 92.4 381.4 123.9C358.2 155.4 312.5 172.2 289.6 210.4C266.8 248.6 266.8 308.2 238.4 328.2C210 348.1 153.2 328.5 108.8 334.8C64.3 341.1 32.2 373.4 0 405.6L0 0Z"
        fill="#02543d"
      ></path>
      <path
        d="M338 0C337.6 38.5 337.1 77 317.8 103.3C298.5 129.5 260.4 143.5 241.4 175.4C222.3 207.2 222.3 256.8 198.7 273.5C175 290.1 127.7 273.7 90.6 279C53.6 284.2 26.8 311.1 0 338L0 0Z"
        fill="#186d43"
      ></path>
      <path
        d="M270.4 0C270 30.8 269.7 61.6 254.2 82.6C238.8 103.6 208.3 114.8 193.1 140.3C177.8 165.7 177.9 205.5 158.9 218.8C140 232.1 102.2 219 72.5 223.2C42.9 227.4 21.4 248.9 0 270.4L0 0Z"
        fill="#368645"
      ></path>
      <path
        d="M202.8 0C202.5 23.1 202.3 46.2 190.7 62C179.1 77.7 156.2 86.1 144.8 105.2C133.4 124.3 133.4 154.1 119.2 164.1C105 174.1 76.6 164.2 54.4 167.4C32.2 170.5 16.1 186.7 0 202.8L0 0Z"
        fill="#589e42"
      ></path>
      <path
        d="M135.2 0C135 15.4 134.8 30.8 127.1 41.3C119.4 51.8 104.2 57.4 96.5 70.1C88.9 82.9 88.9 102.7 79.5 109.4C70 116 51.1 109.5 36.3 111.6C21.4 113.7 10.7 124.5 0 135.2L0 0Z"
        fill="#80b63a"
      ></path>
      <path
        d="M67.6 0C67.5 7.7 67.4 15.4 63.6 20.7C59.7 25.9 52.1 28.7 48.3 35.1C44.5 41.4 44.5 51.4 39.7 54.7C35 58 25.5 54.7 18.1 55.8C10.7 56.8 5.4 62.2 0 67.6L0 0Z"
        fill="#96c135"
      ></path>
    </g>
  </svg>
