<!-- https://app.haikei.app/ -->
 <svg
    id="visual"
    viewBox="0 0 900 600"
    width="900"
    height="600"
    xmlns="http://www.w3.org/2000/svg"
    xmlns:xlink="http://www.w3.org/1999/xlink"
    version="1.1"
  >
    <rect x="0" y="0" width="900" height="600" fill="#000000"></rect>
    <defs>
      <linearGradient id="grad1_0" x1="33.3%" y1="100%" x2="100%" y2="0%">
        <stop offset="20%" stop-color="#57ad9a" stop-opacity="1"></stop>
        <stop offset="80%" stop-color="#57ad9a" stop-opacity="1"></stop>
      </linearGradient>
    </defs>
    <defs>
      <linearGradient id="grad1_1" x1="33.3%" y1="100%" x2="100%" y2="0%">
        <stop offset="20%" stop-color="#57ad9a" stop-opacity="1"></stop>
        <stop offset="80%" stop-color="#328a78" stop-opacity="1"></stop>
      </linearGradient>
    </defs>
    <defs>
      <linearGradient id="grad1_2" x1="33.3%" y1="100%" x2="100%" y2="0%">
        <stop offset="20%" stop-color="#006958" stop-opacity="1"></stop>
        <stop offset="80%" stop-color="#328a78" stop-opacity="1"></stop>
      </linearGradient>
    </defs>
    <defs>
      <linearGradient id="grad1_3" x1="33.3%" y1="100%" x2="100%" y2="0%">
        <stop offset="20%" stop-color="#006958" stop-opacity="1"></stop>
        <stop offset="80%" stop-color="#00493a" stop-opacity="1"></stop>
      </linearGradient>
    </defs>
    <defs>
      <linearGradient id="grad1_4" x1="33.3%" y1="100%" x2="100%" y2="0%">
        <stop offset="20%" stop-color="#002b1e" stop-opacity="1"></stop>
        <stop offset="80%" stop-color="#00493a" stop-opacity="1"></stop>
      </linearGradient>
    </defs>
    <defs>
      <linearGradient id="grad1_5" x1="33.3%" y1="100%" x2="100%" y2="0%">
        <stop offset="20%" stop-color="#002b1e" stop-opacity="1"></stop>
        <stop offset="80%" stop-color="#000000" stop-opacity="1"></stop>
      </linearGradient>
    </defs>
    <defs>
      <linearGradient id="grad2_0" x1="0%" y1="100%" x2="66.7%" y2="0%">
        <stop offset="20%" stop-color="#57ad9a" stop-opacity="1"></stop>
        <stop offset="80%" stop-color="#57ad9a" stop-opacity="1"></stop>
      </linearGradient>
    </defs>
    <defs>
      <linearGradient id="grad2_1" x1="0%" y1="100%" x2="66.7%" y2="0%">
        <stop offset="20%" stop-color="#328a78" stop-opacity="1"></stop>
        <stop offset="80%" stop-color="#57ad9a" stop-opacity="1"></stop>
      </linearGradient>
    </defs>
    <defs>
      <linearGradient id="grad2_2" x1="0%" y1="100%" x2="66.7%" y2="0%">
        <stop offset="20%" stop-color="#328a78" stop-opacity="1"></stop>
        <stop offset="80%" stop-color="#006958" stop-opacity="1"></stop>
      </linearGradient>
    </defs>
    <defs>
      <linearGradient id="grad2_3" x1="0%" y1="100%" x2="66.7%" y2="0%">
        <stop offset="20%" stop-color="#00493a" stop-opacity="1"></stop>
        <stop offset="80%" stop-color="#006958" stop-opacity="1"></stop>
      </linearGradient>
    </defs>
    <defs>
      <linearGradient id="grad2_4" x1="0%" y1="100%" x2="66.7%" y2="0%">
        <stop offset="20%" stop-color="#00493a" stop-opacity="1"></stop>
        <stop offset="80%" stop-color="#002b1e" stop-opacity="1"></stop>
      </linearGradient>
    </defs>
    <defs>
      <linearGradient id="grad2_5" x1="0%" y1="100%" x2="66.7%" y2="0%">
        <stop offset="20%" stop-color="#000000" stop-opacity="1"></stop>
        <stop offset="80%" stop-color="#002b1e" stop-opacity="1"></stop>
      </linearGradient>
    </defs>
    <g transform="translate(900, 600)">
      <path
        d="M-405.6 0C-403 -43.3 -400.3 -86.7 -385.8 -125.3C-371.2 -164 -344.8 -198.1 -318.8 -231.6C-292.7 -265.1 -267.1 -298 -234.5 -322.8C-202 -347.6 -162.6 -364.2 -122.4 -376.6C-82.1 -389.1 -41.1 -397.3 0 -405.6L0 0Z"
        fill="#002011"
      ></path>
      <path
        d="M-338 0C-335.8 -36.1 -333.6 -72.2 -321.5 -104.5C-309.4 -136.7 -287.3 -165.1 -265.6 -193C-243.9 -220.9 -222.5 -248.4 -195.4 -269C-168.3 -289.6 -135.5 -303.5 -102 -313.8C-68.4 -324.2 -34.2 -331.1 0 -338L0 0Z"
        fill="#003a2c"
      ></path>
      <path
        d="M-270.4 0C-268.6 -28.9 -266.9 -57.8 -257.2 -83.6C-247.5 -109.4 -229.9 -132.1 -212.5 -154.4C-195.1 -176.7 -178 -198.7 -156.4 -215.2C-134.7 -231.7 -108.4 -242.8 -81.6 -251.1C-54.8 -259.4 -27.4 -264.9 0 -270.4L0 0Z"
        fill="#005949"
      ></path>
      <path
        d="M-202.8 0C-201.5 -21.7 -200.2 -43.3 -192.9 -62.7C-185.6 -82 -172.4 -99 -159.4 -115.8C-146.4 -132.5 -133.5 -149 -117.3 -161.4C-101 -173.8 -81.3 -182.1 -61.2 -188.3C-41.1 -194.5 -20.5 -198.7 0 -202.8L0 0Z"
        fill="#1c7968"
      ></path>
      <path
        d="M-135.2 0C-134.3 -14.4 -133.4 -28.9 -128.6 -41.8C-123.7 -54.7 -114.9 -66 -106.3 -77.2C-97.6 -88.4 -89 -99.3 -78.2 -107.6C-67.3 -115.9 -54.2 -121.4 -40.8 -125.5C-27.4 -129.7 -13.7 -132.4 0 -135.2L0 0Z"
        fill="#459b89"
      ></path>
      <path
        d="M-67.6 0C-67.2 -7.2 -66.7 -14.4 -64.3 -20.9C-61.9 -27.3 -57.5 -33 -53.1 -38.6C-48.8 -44.2 -44.5 -49.7 -39.1 -53.8C-33.7 -57.9 -27.1 -60.7 -20.4 -62.8C-13.7 -64.8 -6.8 -66.2 0 -67.6L0 0Z"
        fill="#57ad9a"
      ></path>
    </g>
    <g transform="translate(0, 0)">
      <path
        d="M405.6 0C402.6 42.6 399.6 85.2 385.8 125.3C371.9 165.5 347.2 203.1 313.9 228.1C280.6 253 238.6 265.4 204 280.7C169.3 296.1 141.9 314.4 109.1 335.7C76.3 357 38.1 381.3 0 405.6L0 0Z"
        fill="#002011"
      ></path>
      <path
        d="M338 0C335.5 35.5 333 71 321.5 104.5C309.9 137.9 289.3 169.2 261.6 190.1C233.8 210.9 198.9 221.2 170 233.9C141.1 246.7 118.2 262 90.9 279.8C63.6 297.5 31.8 317.8 0 338L0 0Z"
        fill="#003a2c"
      ></path>
      <path
        d="M270.4 0C268.4 28.4 266.4 56.8 257.2 83.6C247.9 110.3 231.5 135.4 209.3 152C187.1 168.7 159.1 176.9 136 187.2C112.9 197.4 94.6 209.6 72.7 223.8C50.9 238 25.4 254.2 0 270.4L0 0Z"
        fill="#005949"
      ></path>
      <path
        d="M202.8 0C201.3 21.3 199.8 42.6 192.9 62.7C186 82.7 173.6 101.5 156.9 114C140.3 126.5 119.3 132.7 102 140.4C84.6 148 70.9 157.2 54.5 167.9C38.1 178.5 19.1 190.7 0 202.8L0 0Z"
        fill="#1c7968"
      ></path>
      <path
        d="M135.2 0C134.2 14.2 133.2 28.4 128.6 41.8C124 55.2 115.7 67.7 104.6 76C93.5 84.3 79.5 88.5 68 93.6C56.4 98.7 47.3 104.8 36.4 111.9C25.4 119 12.7 127.1 0 135.2L0 0Z"
        fill="#459b89"
      ></path>
      <path
        d="M67.6 0C67.1 7.1 66.6 14.2 64.3 20.9C62 27.6 57.9 33.8 52.3 38C46.8 42.2 39.8 44.2 34 46.8C28.2 49.3 23.6 52.4 18.2 56C12.7 59.5 6.4 63.6 0 67.6L0 0Z"
        fill="#57ad9a"
      ></path>
    </g>
  </svg>